HIERARCHY
ROOT Hips
{
	OFFSET -13.091600 -28.302996 44.698402
	CHANNELS 6 Xposition Yposition Zposition Zrotation Xrotation Yrotation
	JOINT Chest
	{
		OFFSET -0.673000 0.623899 5.369202
		CHANNELS 6 Xposition Yposition Zposition Zrotation Xrotation Yrotation
		JOINT Chest2
		{
			OFFSET 0.000000 0.000000 4.415001
			CHANNELS 6 Xposition Yposition Zposition Zrotation Xrotation Yrotation
			JOINT Neck
			{
				OFFSET 0.000000 0.000002 10.273300
				CHANNELS 6 Xposition Yposition Zposition Zrotation Xrotation Yrotation
				JOINT Head
				{
					OFFSET 0.000000 0.000000 2.173897
					CHANNELS 6 Xposition Yposition Zposition Zrotation Xrotation Yrotation
					End Site
					{
						OFFSET 0.000000 0.000000 9.961800
					}
				}
			}
			JOINT LeftCollar
			{
				OFFSET 2.359900 -0.565201 5.928101
				CHANNELS 6 Xposition Yposition Zposition Zrotation Xrotation Yrotation
				JOINT LeftShoulder
				{
					OFFSET 5.443700 0.000000 0.000000
					CHANNELS 6 Xposition Yposition Zposition Zrotation Xrotation Yrotation
					JOINT LeftElbow
					{
						OFFSET 0.000000 0.000000 -10.615799
						CHANNELS 6 Xposition Yposition Zposition Zrotation Xrotation Yrotation
						JOINT LeftWrist
						{
							OFFSET 0.000000 -0.000002 -13.110302
							CHANNELS 6 Xposition Yposition Zposition Zrotation Xrotation Yrotation
							End Site
							{
								OFFSET 0.000000 0.000000 -2.173901
							}
						}
					}
				}
			}
			JOINT RightCollar
			{
				OFFSET -2.636600 -1.718800 6.889698
				CHANNELS 6 Xposition Yposition Zposition Zrotation Xrotation Yrotation
				JOINT RightShoulder
				{
					OFFSET -4.139101 0.000000 0.000000
					CHANNELS 6 Xposition Yposition Zposition Zrotation Xrotation Yrotation
					JOINT RightElbow
					{
						OFFSET 0.000000 0.000000 -10.471802
						CHANNELS 6 Xposition Yposition Zposition Zrotation Xrotation Yrotation
						JOINT RightWrist
						{
							OFFSET 0.000000 0.000000 -12.281898
							CHANNELS 6 Xposition Yposition Zposition Zrotation Xrotation Yrotation
							End Site
							{
								OFFSET 0.000000 -0.000002 -2.173901
							}
						}
					}
				}
			}
		}
	}
	JOINT LeftHip
	{
		OFFSET 2.273400 0.176701 -2.518002
		CHANNELS 6 Xposition Yposition Zposition Zrotation Xrotation Yrotation
		JOINT LeftKnee
		{
			OFFSET 0.000000 -0.000002 -20.456402
			CHANNELS 6 Xposition Yposition Zposition Zrotation Xrotation Yrotation
			JOINT LeftAnkle
			{
				OFFSET 0.000000 -0.000002 -16.635300
				CHANNELS 6 Xposition Yposition Zposition Zrotation Xrotation Yrotation
				End Site
				{
					OFFSET 0.000000 -8.812399 0.000001
				}
			}
		}
	}
	JOINT RightHip
	{
		OFFSET -1.914800 0.018101 -2.699299
		CHANNELS 6 Xposition Yposition Zposition Zrotation Xrotation Yrotation
		JOINT RightKnee
		{
			OFFSET 0.000000 -0.000002 -20.148901
			CHANNELS 6 Xposition Yposition Zposition Zrotation Xrotation Yrotation
			JOINT RightAnkle
			{
				OFFSET 0.000000 -0.000002 -16.838301
				CHANNELS 6 Xposition Yposition Zposition Zrotation Xrotation Yrotation
				End Site
				{
					OFFSET 0.000000 -8.328398 0.000001
				}
			}
		}
	}
}
MOTION
Frames: 4
Frame Time: 0.041667
-41.967300 -26.735500 42.725208 882.337115 9.462039 -6.137739 -0.673002 0.623888 5.369212 17.260545 10.342737 0.800850 0.000004 0.000010 4.415013 -21.619415 -3.419562 -2.067940 0.000005 0.000001 10.273302 46.218729 6.308806 -6.293808 0.000005 0.000004 2.173900 1.436823 -0.320440 4.969952 2.359895 -0.565200 5.928101 3.485622 3.038368 1.681123 5.443696 -0.000004 -0.000009 -28.521762 34.508247 -44.035565 -0.000001 -0.000001 -10.615794 544.313184 -153.512094 184.605602 -0.000006 0.000001 -13.110302 105.254369 -183.531472 98.467531 -2.636603 -1.718797 6.889701 175.832497 -174.895969 205.606876 -4.139092 -0.000005 -0.000003 35.055382 -402.342101 119.657442 0.000004 0.000002 -10.471803 -12.679918 -35.078301 -373.295902 -0.000005 0.000003 -12.281899 426.797976 15.629133 74.554411 2.273397 0.176696 -2.517998 -141.235854 -152.088177 -158.462096 0.000002 0.000001 -20.456402 118.232733 131.468888 -133.856736 -0.000002 -0.000008 -16.635303 39.879538 0.026932 16.581954 -1.914798 0.018097 -2.699299 70.130354 223.312325 134.891277 0.000000 -0.000004 -20.148901 81.389770 85.945431 -48.627020 -0.000003 -0.000003 -16.838303 -36.288122 5.790876 -7.959575
-41.916698 -26.770496 42.742607 882.463282 9.409112 -6.120688 -0.672997 0.623902 5.369209 16.579007 10.368013 0.873597 0.000000 0.000002 4.415008 -20.914531 -3.411690 -1.992688 -0.000001 0.000001 10.273300 45.832738 6.342167 -6.238820 -0.000002 -0.000004 2.173901 1.511568 -0.402795 4.900525 2.359900 -0.565198 5.928104 3.594746 3.016880 1.623685 5.443702 -0.000007 0.000000 -29.123397 34.730685 -43.755435 0.000003 -0.000006 -10.615794 544.424325 -153.535672 184.503381 -0.000000 0.000008 -13.110301 105.392189 -183.511924 98.436099 -2.636597 -1.718804 6.889695 175.847673 -174.865465 205.640412 -4.139103 0.000000 -0.000009 34.979847 -402.296257 119.484980 -0.000008 0.000004 -10.471794 -12.642873 -35.035534 -373.176401 -0.000001 0.000002 -12.281903 426.834231 15.621373 74.568420 2.273400 0.176705 -2.517994 -141.461359 -152.084161 -158.577062 0.000005 -0.000004 -20.456398 118.276228 131.620928 -133.995812 -0.000005 -0.000004 -16.635298 39.935232 0.169588 16.694374 -1.914798 0.018111 -2.699305 70.714082 223.432263 135.277429 0.000005 -0.000003 -20.148903 79.369373 85.929114 -46.892414 -0.000003 -0.000010 -16.838297 -36.258906 5.834876 -7.863515
-41.865105 -26.808296 42.757603 882.612453 9.349665 -6.106272 -0.673001 0.623896 5.369206 16.418284 10.465625 0.904798 -0.000000 0.000002 4.415005 -20.677537 -3.434992 -1.966549 -0.000000 0.000001 10.273301 45.402685 6.325083 -6.235173 -0.000001 -0.000000 2.173889 1.626385 -0.474776 4.785439 2.359899 -0.565198 5.928097 3.529629 3.180371 1.681588 5.443699 -0.000007 -0.000012 -29.476778 34.830871 -43.757146 0.000002 -0.000004 -10.615798 544.700046 -153.572883 184.491688 -0.000002 0.000004 -13.110297 105.394170 -183.494330 98.370112 -2.636601 -1.718798 6.889695 175.719198 -174.742563 205.432652 -4.139087 -0.000002 -0.000003 34.990158 -402.170472 119.529444 0.000000 0.000004 -10.471798 -12.687951 -35.096726 -373.228475 0.000005 -0.000001 -12.281892 426.865786 15.593221 74.616019 2.273398 0.176701 -2.517998 -141.670022 -152.084721 -158.659229 0.000003 -0.000000 -20.456394 118.147451 131.831025 -134.062967 -0.000001 -0.000009 -16.635303 40.081241 0.315077 16.881760 -1.914797 0.018103 -2.699301 71.118757 223.475566 135.553751 0.000003 -0.000005 -20.148905 76.504068 85.970348 -44.202652 -0.000000 -0.000001 -16.838303 -36.168529 5.913088 -7.678911
-41.811798 -26.850397 42.772003 882.776433 9.332902 -6.102068 -0.673002 0.623891 5.369202 16.242149 10.535769 0.953740 0.000004 0.000002 4.415004 -20.386320 -3.468117 -1.936587 0.000001 0.000003 10.273308 44.931191 6.287779 -6.264790 0.000003 0.000001 2.173893 1.722640 -0.521174 4.678676 2.359901 -0.565204 5.928109 3.364993 3.434846 1.839545 5.443695 -0.000003 -0.000008 -29.607002 34.848762 -43.993204 -0.000000 0.000002 -10.615793 544.990793 -153.586639 184.534786 -0.000004 0.000015 -13.110300 105.324502 -183.477254 98.294571 -2.636596 -1.718802 6.889707 175.425527 -174.534679 205.256214 -4.139090 0.000003 -0.000002 35.080514 -402.042010 119.495321 -0.000002 0.000001 -10.471804 -12.743771 -35.162733 -373.283253 0.000009 -0.000006 -12.281897 426.890867 15.555334 74.662949 2.273398 0.176699 -2.518008 -141.827266 -152.052934 -158.665882 0.000003 -0.000004 -20.456396 118.014153 131.987559 -134.154628 -0.000005 -0.000004 -16.635300 40.192238 0.468706 17.058940 -1.914798 0.018100 -2.699306 71.454939 223.505742 135.754600 0.000003 -0.000004 -20.148899 72.601564 86.029600 -40.480486 0.000001 -0.000001 -16.838305 -36.037536 6.022425 -7.439782
